# AST/ASF file generated using VICON BodyLanguage
# -----------------------------------------------
:version 1.10
:name VICON
:units
  mass 1.0
  length 0.45
  angle deg
:documentation
   .ast/.asf automatically generated from VICON data using
   VICON BodyBuilder and BodyLanguage model FoxedUp or BRILLIANT.MOD
:root
   order TX TY TZ RX RY RZ
   axis XYZ
   position 0 0 0  
   orientation 0 0 0 
:bonedata
  begin
     id 1 
     name lhipjoint
     direction 0.645893 -0.654526 0.392961 
     length 2.38111 
     axis 0 0 0  XYZ
  end
  begin
     id 2 
     name lfemur
     direction 0.34202 -0.939693 0  
     length 6.6822  
     axis 0 0 20  XYZ
    dof rx ry rz
    limits (-160.0 20.0)
           (-70.0 70.0)
           (-60.0 70.0)
  end
  begin
     id 3 
     name ltibia
     direction 0.34202 -0.939693 0   
     length 6.93904   
     axis 0 0 20   XYZ
    dof rx
    limits (-10.0 170.0)
  end
  begin
     id 4 
     name lfoot
     direction 0.0694967 -0.190941 0.979138   
     length 2.13616   
     axis -90 7.62852e-016 20   XYZ
    dof rx rz
    limits (-45.0 90.0)
           (-70.0 20.0)
  end
  begin
     id 5 
     name ltoes
     direction 1.535e-011 -4.2202e-011 1   
     length 1.07536   
     axis -90 7.62852e-016 20   XYZ
    dof rx
    limits (-90.0 20.0)
  end
  begin
     id 6 
     name rhipjoint
     direction -0.700219 -0.612087 0.367481   
     length 2.54621  
     axis 0 0 0  XYZ 
  end
  begin
     id 7 
     name rfemur
     direction -0.34202 -0.939693 0   
     length 6.55353   
     axis 0 0 -20   XYZ
    dof rx ry rz
    limits (-160.0 20.0)
           (-70.0 70.0)
           (-70.0 60.0)
  end
  begin
     id 8 
     name rtibia
     direction -0.34202 -0.939693 0   
     length 6.8736   
     axis 0 0 -20   XYZ
    dof rx
    limits (-10.0 170.0)
 end
 begin
     id 9 
     name rfoot
     direction -0.0679995 -0.186827 0.980037   
     length 2.1218  
     axis -90 -7.62852e-016 -20   XYZ
    dof rx rz
    limits (-45.0 90.0)
           (-20.0 70.0)
  end
  begin
     id 10 
     name rtoes
     direction -1.53589e-011 -4.21772e-011 1   
     length 1.06864   
     axis -90 -7.62852e-016 -20   XYZ
    dof rx
    limits (-90.0 20.0)
  end
  begin
     id 11 
     name lowerback
     direction -0.0416607 0.996347 -0.0745409   
     length 2.12205   
     axis 0 0 0   XYZ
    dof rx ry rz
    limits (-20.0 45.0)
           (-30.0 30.0)
           (-30.0 30.0)
  end
  begin
     id 12 
     name upperback
     direction -0.000153993 0.999276 -0.0380568   
     length 2.12759   
     axis 0 0 0   XYZ
    dof rx ry rz
    limits (-20.0 45.0)
           (-30.0 30.0)
           (-30.0 30.0)
  end
  begin
     id 13 
     name thorax
     direction 0.0187671 0.999821 -0.00241421   
     length 2.13704   
     axis 0 0 0   XYZ
    dof rx ry rz
    limits (-20.0 45.0)
           (-30.0 30.0)
           (-30.0 30.0)
  end
  begin
     id 14 
     name lowerneck
     direction 0.0268157 0.964865 0.261374   
     length 1.65253   
     axis 0 0 0   XYZ
    dof rx ry rz
    limits (-20.0 45.0)
           (-30.0 30.0)
           (-30.0 30.0)
  end
  begin
     id 15 
     name upperneck
     direction 0.00263774 0.939908 -0.341418   
     length 1.72375   
     axis 0 0 0   XYZ
    dof rx ry rz
    limits (-20.0 45.0)
           (-30.0 30.0)
           (-30.0 30.0)
  end
  begin
     id 16
     name head
     direction -0.00526001 0.989001 -0.147818  
     length 1.74878  
     axis 0 0 0   XYZ
    dof rx ry rz
    limits (-20.0 45.0)
           (-30.0 30.0)
           (-30.0 30.0)
  end
  begin
     id 17 
     name lclavicle
     direction 0.881214 0.461162 -0.103884  
     length 3.25108  
     axis 0 0 0   XYZ
    dof ry rz
    limits (-20.0 10.0)
           (0.0 20.0)
  end
  begin
     id 18 
     name lhumerus
     direction 1 -4.4899e-011 3.38092e-027   
     length 4.87408   
     axis 180 -30 -90   XYZ
    dof rx ry rz
    limits (-60.0 90.0)
           (-90.0 90.0)
           (-90.0 90.0)
  end
  begin
     id 19
     name lradius
     direction 1 -4.48931e-011 9.96288e-027   
     length 2.76729   
     axis 180 -30 -90   XYZ
    dof rx
    limits (-10.0 170.0)
  end
  begin
     id 20
     name lwrist
     direction 1 -4.4896e-011 1.50617e-026   
     length 1.38364   
     axis -9.31234e-015 90 90   XYZ
    dof ry
    limits (-180.0 0.0)
 end
  begin
     id 21 
     name lhand
     direction 1 -4.49038e-011 3.01286e-026   
     length 0.98922   
     axis -1.92217e-014 90 90   XYZ
    dof rx rz
    limits (-90.0 90.0)
           (-45.0 45.0)
  end
  begin
     id 22 
     name lfingers
     direction 1 -4.49051e-011 6.02588e-026   
     length 0.797535   
     axis -3.84436e-014 90 90   XYZ
    dof rx
    limits (0.0 90.0)
  end
  begin
     id 23
     name lthumb
     direction 0.707107 -6.34901e-011 0.707107   
     length 1.14511   
     axis -90 45 2.19363e-014   XYZ
    dof rx rz
    limits (-45.0 45.0)
           (-45.0 45.0)
  end
  begin
     id 24 
     name rclavicle
     direction -0.893894 0.441652 -0.0767889   
     length 3.29361  
     axis 0 0 0   XYZ 
    dof ry rz
    limits (-10.0 20.0)
           (-20.0 0.0)
  end
  begin
     id 25 
     name rhumerus
     direction -1 -4.48945e-011 8.0491e-028  
     length 4.71404   
     axis 180 30 90   XYZ
    dof rx ry rz
    limits (-90.0 60.0)
           (-90.0 90.0)
           (-90.0 90.0)
  end
  begin
     id 26 
     name rradius
     direction -1 -4.48986e-011 9.27795e-027   
     length 2.83468   
     axis 180 30 90   XYZ
    dof rx
    limits (-10.0 170.0)
  end
  begin
     id 27 
     name rwrist
     direction -1 -4.49029e-011 1.5064e-026   
     length 1.41734   
     axis -9.31234e-015 -90 -90   XYZ
    dof ry
    limits (-180.0 0.0)
  end
  begin
     id 28
     name rhand
     direction -1 -4.48857e-011 3.01165e-026   
     length 0.868195   
     axis -1.92217e-014 -90 -90   XYZ
    dof rx rz
    limits (-90.0 90.0)
           (-45.0 45.0)
  end
  begin
     id 29
     name rfingers
     direction -1 -4.49048e-011 6.02585e-026   
     length 0.699961   
     axis -3.84436e-014 -90 -90   XYZ
    dof rx
    limits (0.0 90.0)
  end
  begin
     id 30
     name rthumb
     direction -0.707107 -6.34854e-011 0.707107   
     length 1.00501   
     axis -90 -45 -2.19363e-014   XYZ
    dof rx rz
    limits (-45.0 45.0)
           (-45.0 45.0)
  end
:hierarchy
  begin
    root lhipjoint rhipjoint lowerback
    lhipjoint lfemur
    lfemur ltibia
    ltibia lfoot
    lfoot ltoes
    rhipjoint rfemur
    rfemur rtibia
    rtibia rfoot
    rfoot rtoes
    lowerback upperback
    upperback thorax
    thorax lowerneck lclavicle rclavicle
    lowerneck upperneck
    upperneck head
    lclavicle lhumerus
    lhumerus lradius
    lradius lwrist
    lwrist lhand lthumb
    lhand lfingers
    rclavicle rhumerus
    rhumerus rradius
    rradius rwrist
    rwrist rhand rthumb
    rhand rfingers
  end

#!OML:ASF H:\ManfredObstacles\Project 1\Capture day 2\Session 1\male.ASF
:FULLY-SPECIFIED
:DEGREES
157
root 1.16844 15.3042 -2.67853 -168.037 -1.06309 -186.859
lowerback 0.196679 0.646427 -8.9421
upperback 2.27565 0.722712 -3.14797
thorax 2.16926 0.0983294 1.75134
lowerneck -34.4533 -1.72021 -1.39548
upperneck 36.3999 -5.57918 4.58413
head 20.3899 -2.0302 0.884689
rclavicle -5.86415e-015 -1.90833e-014
rhumerus -58.0013 7.01477 -93.2218
rradius 84.6323
rwrist 5.64321
rhand -16.4703 -5.73938
rfingers 7.12502
rthumb 9.74639 -35.4939
lclavicle -5.86415e-015 -1.90833e-014
lhumerus -41.2405 -22.9144 99.2876
lradius 97.105
lwrist -18.5834
lhand -18.6551 8.50176
lfingers 7.12502
lthumb 7.63806 38.3438
rfemur -29.3723 -2.96517 15.2314
rtibia 79.3845
rfoot -1.66121 -24.0377
rtoes -18.333
lfemur -15.2944 -5.85965 -30.454
ltibia 44.027
lfoot -1.744 19.2969
ltoes -19.1553
158
root 1.17519 15.3836 -2.93676 -167.856 -1.43361 -186.863
lowerback 0.271871 0.139205 -9.00308
upperback 2.19524 0.0458478 -2.94825
thorax 2.10928 -0.229785 1.98218
lowerneck -34.4193 -1.44063 -1.17104
upperneck 36.4335 -5.08084 4.15963
head 20.3422 -1.87925 0.766553
rclavicle 2.38542e-015 -2.98177e-014
rhumerus -59.5669 7.02423 -92.5706
rradius 84.6159
rwrist 5.87858
rhand -16.4044 -5.5414
rfingers 7.12502
rthumb 9.81005 -35.2929
lclavicle 2.38542e-015 -2.98177e-014
lhumerus -40.2102 -22.8115 99.6275
lradius 97.8546
lwrist -18.7697
lhand -18.6742 7.97603
lfingers 7.12502
lthumb 7.61967 37.8188
rfemur -31.0667 -2.94799 15.325
rtibia 78.8075
rfoot -2.28316 -24.1338
rtoes -18.6286
lfemur -13.9605 -6.16834 -30.4045
ltibia 42.6972
lfoot -0.657287 17.8869
ltoes -19.0687
159
root 1.18262 15.4734 -3.20165 -167.621 -1.81484 -186.85
lowerback 0.274885 -0.384081 -9.02009
upperback 2.08392 -0.643466 -2.7418
thorax 2.06505 -0.561919 2.19496
lowerneck -34.374 -1.10239 -0.839334
upperneck 36.4726 -4.51456 3.64085
head 20.2905 -1.70246 0.600419
rclavicle -2.28602e-015 -2.82274e-014
rhumerus -61.0935 7.03286 -91.8936
rradius 84.6663
rwrist 6.00605
rhand -16.3336 -5.31592
rfingers 7.12502
rthumb 9.87831 -35.0642
lclavicle -2.28602e-015 -2.82274e-014
lhumerus -39.2867 -22.8581 99.9111
lradius 98.5917
lwrist -18.8416
lhand -18.7358 7.50378
lfingers 7.12502
lthumb 7.56016 37.3487
rfemur -32.6508 -2.86771 15.4162
rtibia 77.8635
rfoot -2.7613 -24.0985
rtoes -18.9097
lfemur -12.65 -6.45798 -30.321
ltibia 41.2475
lfoot 0.563039 16.2589
ltoes -18.9302
160
root 1.1912 15.5725 -3.47327 -167.321 -2.16153 -186.817
lowerback 0.178449 -0.907879 -9.01067
upperback 1.94642 -1.32171 -2.53028
thorax 2.05358 -0.887888 2.39549
lowerneck -34.3402 -0.757639 -0.551772
upperneck 36.5722 -3.95085 3.16474
head 20.2919 -1.52995 0.461135
rclavicle -5.06901e-015 1.78906e-014
rhumerus -62.5601 7.02492 -91.1913
rradius 84.7775
rwrist 5.97791
rhand -16.2697 -5.0885
rfingers 7.12502
rthumb 9.93999 -34.8338
lclavicle -5.06901e-015 1.78906e-014
lhumerus -38.4417 -23.0353 100.101
lradius 99.2858
lwrist -18.9482
lhand -18.7648 7.11996
lfingers 7.12502
lthumb 7.53213 36.9658
rfemur -34.1449 -2.68943 15.4986
rtibia 76.5736
rfoot -3.10042 -23.9484
rtoes -19.22
lfemur -11.3945 -6.68309 -30.2005
ltibia 39.6917
lfoot 1.91142 14.4243
ltoes -18.763
161
root 1.20062 15.6793 -3.75199 -166.977 -2.46585 -186.796
lowerback -0.000243924 -1.42535 -9.00606
upperback 1.78615 -1.98349 -2.32226
thorax 2.06792 -1.20615 2.59024
lowerneck -34.2888 -1.78682 0.779708
upperneck 36.7591 -2.63956 1.87849
head 20.2818 -0.0811505 0.292171
rclavicle -9.14409e-015 3.53837e-014
rhumerus -63.9581 7.01018 -90.4664
rradius 84.9282
rwrist 5.76542
rhand -16.2115 -4.85805
rfingers 7.12502
rthumb 9.99616 -34.6007
lclavicle -9.14409e-015 3.53837e-014
lhumerus -37.7035 -23.3263 100.216
lradius 99.9374
lwrist -19.0238
lhand -18.7545 6.80798
lfingers 7.12502
lthumb 7.54214 36.6535
rfemur -35.5243 -2.43013 15.5256
rtibia 74.9623
rfoot -3.29988 -23.6822
rtoes -19.492
lfemur -10.1736 -6.82547 -30.0788
ltibia 38.0349
lfoot 3.40722 12.4124
ltoes -18.5404
